PathFileType	4	(X/Y/Z)	/Users/visionmauri/Downloads/Videos/OAW11-top_Sports2D/OAW11-top_Sports2D_px_person00.trc
DataRate	CameraRate	NumFrames	NumMarkers	Units	OrigDataRate	OrigDataStartFrame	OrigNumFrames
30.0	30.0	4	22	m	30.0	541	2166
Frame#	Time	Hip			RHip			RKnee			RAnkle			RBigToe			RSmallToe			RHeel			LHip			LKnee			LAnkle			LBigToe			LSmallToe			LHeel			Neck			Head			Nose			RShoulder			RElbow			RWrist			LShoulder			LElbow			LWrist			
		X1	Y1	Z1	X2	Y2	Z2	X3	Y3	Z3	X4	Y4	Z4	X5	Y5	Z5	X6	Y6	Z6	X7	Y7	Z7	X8	Y8	Z8	X9	Y9	Z9	X10	Y10	Z10	X11	Y11	Z11	X12	Y12	Z12	X13	Y13	Z13	X14	Y14	Z14	X15	Y15	Z15	X16	Y16	Z16	X17	Y17	Z17	X18	Y18	Z18	X19	Y19	Z19	X20	Y20	Z20	X21	Y21	Z21	X22	Y22	Z22
541	18.041662817551963	450.2967950979154	1152.3309096776325	0.0	388.46144883281977	1165.4108397731652	0.0	395.3152408962243	1367.3621296373803	0.0	401.73028102885047	1566.7722296285406	0.0	401.2062033138856	1669.5136365235046	0.0	365.869405299338	1655.948532133107	0.0	413.330611429811	1586.8247185231057	0.0	510.3619204658349	1172.8574557677466	0.0	499.1239457059735	1334.3604318669256	0.0	493.69620578829523	1417.9484323417919	0.0	490.0621405037209	1508.6104831742928	0.0	521.7454580793521	1491.113368358899	0.0	485.79692376202775	1421.9363831380742	0.0	481.36165872054386	857.881399415884	0.0	487.218142282206	756.6234288763508	0.0	481.7575402629263	844.7794267037802	0.0	379.7556224774009	881.6727578369969	0.0	316.5838299927483	1018.3348561861336	0.0	265.100570456053	1140.1106464885568	0.0	579.4922222677078	889.7631922538997	0.0	624.8379119000431	1047.9153505894117	0.0	638.444641149689	1184.6426779113951	0.0
542	18.07501154734411	446.958118362455	1158.9166752014498	0.0	383.4312967469607	1174.206103623654	0.0	390.6267352279221	1376.1799496277624	0.0	401.44765714271034	1569.814486018554	0.0	402.64760532369735	1672.0386684040725	0.0	366.4552996558149	1657.6073366391458	0.0	413.76790746230745	1588.382987092618	0.0	507.0355277710733	1180.976588733148	0.0	498.9742944580063	1339.277900141934	0.0	494.5321646533258	1421.1562181988204	0.0	489.3778259234734	1508.062530734346	0.0	521.5464885074792	1491.8296688451194	0.0	486.8407876702224	1425.460641468591	0.0	475.8957760633583	859.5446745872623	0.0	481.697780629459	759.2122311268735	0.0	475.7678588250642	848.040208796717	0.0	375.0336383724235	887.0790397865784	0.0	309.83635741982977	1023.86519013852	0.0	257.21379586552695	1148.6348147995616	0.0	574.9074985819833	893.6925879347934	0.0	620.3203604224017	1052.8455704010196	0.0	635.9690503213226	1191.2630797837453	0.0
543	18.10836027713626	443.50122417633764	1162.7265315609977	0.0	378.0881417254297	1178.5165891356494	0.0	384.80446184685815	1380.2945443804786	0.0	400.2860292460475	1571.1269240922081	0.0	401.2518777622795	1673.8711355120938	0.0	365.26033268523025	1658.6286278849232	0.0	413.3166166562852	1589.3184274501953	0.0	504.06635390512486	1184.721275788648	0.0	499.3845218836768	1345.06728962936	0.0	495.62254487006663	1424.0886522297008	0.0	490.3475388029869	1508.6678056088085	0.0	521.4953127259033	1492.9624111862483	0.0	486.8220484139039	1428.1093389793791	0.0	469.4391929308123	861.5656050932156	0.0	474.99290691641187	763.0780377923983	0.0	467.77513054966	852.774345755595	0.0	369.09808923860646	890.0023446366167	0.0	303.0905681960728	1028.699709875708	0.0	249.2780236254535	1156.3630723436308	0.0	569.5349313679993	895.6803861563699	0.0	615.674953142828	1057.0626693024544	0.0	633.0158599726726	1195.6640079672484	0.0
544	18.141709006928405	439.7138173147956	1165.6836734729309	0.0	373.462445282812	1181.6453809745399	0.0	380.683114443002	1383.3572374712592	0.0	399.4697726849443	1572.4257943975406	0.0	399.4085737493424	1674.990071692723	0.0	363.34634324108976	1658.3058990624	0.0	413.0313945578848	1590.6476562424393	0.0	500.9769119659705	1187.0158203684698	0.0	500.6955763448945	1351.7896612914217	0.0	496.40536322609887	1425.849639448063	0.0	491.7096818408419	1510.350371062294	0.0	522.0279296861962	1494.6791805206728	0.0	486.85976673653124	1428.6389929018007	0.0	463.54788543497074	863.340047737191	0.0	468.4973880276223	767.2714744095174	0.0	460.51646280818517	858.4081616561665	0.0	362.24856329944754	891.6368738791114	0.0	295.8281224417133	1033.5245185772715	0.0	241.70993781579836	1163.1942603851119	0.0	563.9115631978967	896.6450200490519	0.0	610.6321450879593	1060.0113517227348	0.0	629.3608395522214	1198.240738021232	0.0
